<?xml version="1.0" encoding="UTF-8"?>
<svg id="Layer_2" data-name="Layer 2" xmlns="http://www.w3.org/2000/svg" viewBox="0 0 1000 844.76">
  <defs>
    <style>
      .cls-1 {
        fill: #fc814a;
      }
    </style>
  </defs>
  <g id="Layer_1-2" data-name="Layer 1">
    <g>
      <path class="cls-1" d="M1000,344.76c0,276.14-223.86,500-500,500S0,620.91,0,344.76s223.86,207,500,207,500-483.14,500-207Z"/>
      <path class="cls-1" d="M822.3,153.69c0,177.92-144.23,322.15-322.15,322.15S178,331.6,178,153.69s144.23,133.37,322.15,133.37S822.3-24.23,822.3,153.69Z"/>
      <path class="cls-1" d="M686,31.72c0,102.77-83.31,186.07-186.07,186.07S313.85,134.49,313.85,31.72s83.31,77.03,186.07,77.03,186.07-179.8,186.07-77.03Z"/>
    </g>
  </g>
</svg>